<svg id="Layer_1" data-name="Layer 1" xmlns="http://www.w3.org/2000/svg" viewBox="0 0 448.48 448.48"><defs><style>.cls-1{fill:#fff;}</style></defs><title>qrcode_ljubisa</title><rect class="cls-1" width="448.48" height="448.48"/><path d="M16.61,431.87H33.22V415.26H16.61v16.61m16.61,0H49.83V415.26H33.22v16.61m16.61,0H66.44V415.26H49.83v16.61m16.61,0H83.05V415.26H66.44v16.61m16.61,0H99.66V415.26H83.05v16.61m16.61,0h16.61V415.26H99.66v16.61m16.61,0h16.61V415.26H116.27v16.61m33.22,0H166.1V415.26H149.49v16.61m16.61,0h16.61V415.26H166.1v16.61m16.61,0h16.61V415.26H182.71v16.61m33.22,0h16.61V415.26H215.93v16.61m16.61,0h16.61V415.26H232.54v16.61m16.61,0h16.61V415.26H249.15v16.61m49.83,0h16.61V415.26H299v16.61m16.61,0H332.2V415.26H315.59v16.61m33.22,0h16.61V415.26H348.82v16.61m33.22,0h16.61V415.26H382v16.61m16.61,0h16.61V415.26H398.65v16.61m16.61,0h16.61V415.26H415.26v16.61M16.61,415.26H33.22V398.65H16.61v16.61m99.66,0h16.61V398.65H116.27v16.61m33.22,0H166.1V398.65H149.49v16.61m16.61,0h16.61V398.65H166.1v16.61m33.22,0h16.61V398.65H199.32v16.61m16.61,0h16.61V398.65H215.93v16.61m66.44,0H299V398.65H282.37v16.61m66.44,0h16.61V398.65H348.82v16.61m16.61,0H382V398.65H365.43v16.61m49.83,0h16.61V398.65H415.26v16.61M16.61,398.65H33.22V382H16.61v16.61m33.22,0H66.44V382H49.83v16.61m16.61,0H83.05V382H66.44v16.61m16.61,0H99.66V382H83.05v16.61m33.22,0h16.61V382H116.27v16.61m33.22,0H166.1V382H149.49v16.61m83.05,0h16.61V382H232.54v16.61m16.61,0h16.61V382H249.15v16.61m16.61,0h16.61V382H265.76v16.61m66.44,0h16.61V382H332.2v16.61m49.83,0h16.61V382H382v16.61m33.22,0h16.61V382H415.26v16.61M16.61,382H33.22V365.43H16.61V382m33.22,0H66.44V365.43H49.83V382m16.61,0H83.05V365.43H66.44V382m16.61,0H99.66V365.43H83.05V382m33.22,0h16.61V365.43H116.27V382m33.22,0H166.1V365.43H149.49V382m16.61,0h16.61V365.43H166.1V382m16.61,0h16.61V365.43H182.71V382m16.61,0h16.61V365.43H199.32V382m33.22,0h16.61V365.43H232.54V382m49.83,0H299V365.43H282.37V382M299,382h16.61V365.43H299V382m16.61,0H332.2V365.43H315.59V382m33.22,0h16.61V365.43H348.82V382M382,382h16.61V365.43H382V382m16.61,0h16.61V365.43H398.65V382m16.61,0h16.61V365.43H415.26V382M16.61,365.43H33.22V348.82H16.61v16.61m33.22,0H66.44V348.82H49.83v16.61m16.61,0H83.05V348.82H66.44v16.61m16.61,0H99.66V348.82H83.05v16.61m33.22,0h16.61V348.82H116.27v16.61m33.22,0H166.1V348.82H149.49v16.61m33.22,0h16.61V348.82H182.71v16.61m16.61,0h16.61V348.82H199.32v16.61m16.61,0h16.61V348.82H215.93v16.61m16.61,0h16.61V348.82H232.54v16.61m33.22,0h16.61V348.82H265.76v16.61m16.61,0H299V348.82H282.37v16.61m16.61,0h16.61V348.82H299v16.61m16.61,0H332.2V348.82H315.59v16.61m16.61,0h16.61V348.82H332.2v16.61m16.61,0h16.61V348.82H348.82v16.61m16.61,0H382V348.82H365.43v16.61m16.61,0h16.61V348.82H382v16.61M16.61,348.82H33.22V332.21H16.61v16.61m99.66,0h16.61V332.21H116.27v16.61m83.05,0h16.61V332.21H199.32v16.61m83.05,0H299V332.21H282.37v16.61m66.44,0h16.61V332.21H348.82v16.61M16.61,332.21H33.22V315.6H16.61v16.61m16.61,0H49.83V315.6H33.22v16.61m16.61,0H66.44V315.6H49.83v16.61m16.61,0H83.05V315.6H66.44v16.61m16.61,0H99.66V315.6H83.05v16.61m16.61,0h16.61V315.6H99.66v16.61m16.61,0h16.61V315.6H116.27v16.61m33.22,0H166.1V315.6H149.49v16.61m33.22,0h16.61V315.6H182.71v16.61m66.44,0h16.61V315.6H249.15v16.61m33.22,0H299V315.6H282.37v16.61m33.22,0H332.2V315.6H315.59v16.61m33.22,0h16.61V315.6H348.82v16.61m16.61,0H382V315.6H365.43v16.61m33.22,0h16.61V315.6H398.65v16.61m16.61,0h16.61V315.6H415.26v16.61M149.49,315.6H166.1V299H149.49V315.6m16.61,0h16.61V299H166.1V315.6m16.61,0h16.61V299H182.71V315.6m16.61,0h16.61V299H199.32V315.6m33.22,0h16.61V299H232.54V315.6m33.22,0h16.61V299H265.76V315.6m16.61,0H299V299H282.37V315.6m66.44,0h16.61V299H348.82V315.6M16.61,299H33.22V282.37H16.61V299m99.66,0h16.61V282.37H116.27V299m83.05,0h16.61V282.37H199.32V299m16.61,0h16.61V282.37H215.93V299m16.61,0h16.61V282.37H232.54V299m16.61,0h16.61V282.37H249.15V299m16.61,0h16.61V282.37H265.76V299m16.61,0H299V282.37H282.37V299M299,299h16.61V282.37H299V299m16.61,0H332.2V282.37H315.59V299m16.61,0h16.61V282.37H332.2V299m16.61,0h16.61V282.37H348.82V299M382,299h16.61V282.37H382V299m16.61,0h16.61V282.37H398.65V299m-382-16.61H33.22V265.76H16.61v16.61m66.44,0H99.66V265.76H83.05v16.61m49.83,0h16.61V265.76H132.88v16.61m16.61,0H166.1V265.76H149.49v16.61m16.61,0h16.61V265.76H166.1v16.61m83.05,0h16.61V265.76H249.15v16.61m16.61,0h16.61V265.76H265.76v16.61m66.44,0h16.61V265.76H332.2v16.61m16.61,0h16.61V265.76H348.82v16.61m49.83,0h16.61V265.76H398.65v16.61m16.61,0h16.61V265.76H415.26v16.61M16.61,265.76H33.22V249.15H16.61v16.61m99.66,0h16.61V249.15H116.27v16.61m16.61,0h16.61V249.15H132.88v16.61m49.83,0h16.61V249.15H182.71v16.61m83.05,0h16.61V249.15H265.76v16.61m16.61,0H299V249.15H282.37v16.61m33.22,0H332.2V249.15H315.59v16.61m49.83,0H382V249.15H365.43v16.61m33.22,0h16.61V249.15H398.65v16.61m16.61,0h16.61V249.15H415.26v16.61M16.61,249.15H33.22V232.54H16.61v16.61m16.61,0H49.83V232.54H33.22v16.61m33.22,0H83.05V232.54H66.44v16.61m16.61,0H99.66V232.54H83.05v16.61m16.61,0h16.61V232.54H99.66v16.61m33.22,0h16.61V232.54H132.88v16.61m33.22,0h16.61V232.54H166.1v16.61m16.61,0h16.61V232.54H182.71v16.61m33.22,0h16.61V232.54H215.93v16.61m16.61,0h16.61V232.54H232.54v16.61m99.66,0h16.61V232.54H332.2v16.61m49.83,0h16.61V232.54H382v16.61M16.61,232.54H33.22V215.93H16.61v16.61m16.61,0H49.83V215.93H33.22v16.61m33.22,0H83.05V215.93H66.44v16.61m49.83,0h16.61V215.93H116.27v16.61m16.61,0h16.61V215.93H132.88v16.61m33.22,0h16.61V215.93H166.1v16.61m33.22,0h16.61V215.93H199.32v16.61m16.61,0h16.61V215.93H215.93v16.61m16.61,0h16.61V215.93H232.54v16.61m16.61,0h16.61V215.93H249.15v16.61m49.83,0h16.61V215.93H299v16.61m16.61,0H332.2V215.93H315.59v16.61m33.22,0h16.61V215.93H348.82v16.61m16.61,0H382V215.93H365.43v16.61m16.61,0h16.61V215.93H382v16.61m33.22,0h16.61V215.93H415.26v16.61M16.61,215.93H33.22V199.32H16.61v16.61m16.61,0H49.83V199.32H33.22v16.61m16.61,0H66.44V199.32H49.83v16.61m33.22,0H99.66V199.32H83.05v16.61m16.61,0h16.61V199.32H99.66v16.61m33.22,0h16.61V199.32H132.88v16.61m33.22,0h16.61V199.32H166.1v16.61m16.61,0h16.61V199.32H182.71v16.61m16.61,0h16.61V199.32H199.32v16.61m49.83,0h16.61V199.32H249.15v16.61m33.22,0H299V199.32H282.37v16.61m16.61,0h16.61V199.32H299v16.61m16.61,0H332.2V199.32H315.59v16.61m33.22,0h16.61V199.32H348.82v16.61m49.83,0h16.61V199.32H398.65v16.61m16.61,0h16.61V199.32H415.26v16.61m-382-16.61H49.83V182.71H33.22v16.61m16.61,0H66.44V182.71H49.83v16.61m16.61,0H83.05V182.71H66.44v16.61m33.22,0h16.61V182.71H99.66v16.61m16.61,0h16.61V182.71H116.27v16.61m49.83,0h16.61V182.71H166.1v16.61m33.22,0h16.61V182.71H199.32v16.61m16.61,0h16.61V182.71H215.93v16.61m49.83,0h16.61V182.71H265.76v16.61m33.22,0h16.61V182.71H299v16.61m16.61,0H332.2V182.71H315.59v16.61m33.22,0h16.61V182.71H348.82v16.61m49.83,0h16.61V182.71H398.65v16.61m16.61,0h16.61V182.71H415.26v16.61M166.1,182.71h16.61V166.1H166.1v16.61m116.27,0H299V166.1H282.37v16.61m16.61,0h16.61V166.1H299v16.61m33.22,0h16.61V166.1H332.2v16.61m33.22,0H382V166.1H365.43v16.61m16.61,0h16.61V166.1H382v16.61M16.61,166.1H33.22V149.49H16.61V166.1m16.61,0H49.83V149.49H33.22V166.1m16.61,0H66.44V149.49H49.83V166.1m16.61,0H83.05V149.49H66.44V166.1m16.61,0H99.66V149.49H83.05V166.1m33.22,0h16.61V149.49H116.27V166.1m16.61,0h16.61V149.49H132.88V166.1m16.61,0H166.1V149.49H149.49V166.1m16.61,0h16.61V149.49H166.1V166.1m16.61,0h16.61V149.49H182.71V166.1m33.22,0h16.61V149.49H215.93V166.1m16.61,0h16.61V149.49H232.54V166.1m16.61,0h16.61V149.49H249.15V166.1m16.61,0h16.61V149.49H265.76V166.1m16.61,0H299V149.49H282.37V166.1m16.61,0h16.61V149.49H299V166.1m33.22,0h16.61V149.49H332.2V166.1m33.22,0H382V149.49H365.43V166.1m33.22,0h16.61V149.49H398.65V166.1M215.93,149.49h16.61V132.88H215.93v16.61m33.22,0h16.61V132.88H249.15v16.61M16.61,132.88H33.22V116.27H16.61v16.61m16.61,0H49.83V116.27H33.22v16.61m16.61,0H66.44V116.27H49.83v16.61m16.61,0H83.05V116.27H66.44v16.61m16.61,0H99.66V116.27H83.05v16.61m16.61,0h16.61V116.27H99.66v16.61m16.61,0h16.61V116.27H116.27v16.61m33.22,0H166.1V116.27H149.49v16.61m33.22,0h16.61V116.27H182.71v16.61m33.22,0h16.61V116.27H215.93v16.61m33.22,0h16.61V116.27H249.15v16.61m33.22,0H299V116.27H282.37v16.61m33.22,0H332.2V116.27H315.59v16.61m16.61,0h16.61V116.27H332.2v16.61m16.61,0h16.61V116.27H348.82v16.61m16.61,0H382V116.27H365.43v16.61m16.61,0h16.61V116.27H382v16.61m16.61,0h16.61V116.27H398.65v16.61m16.61,0h16.61V116.27H415.26v16.61M16.61,116.27H33.22V99.66H16.61v16.61m99.66,0h16.61V99.66H116.27v16.61m33.22,0H166.1V99.66H149.49v16.61m33.22,0h16.61V99.66H182.71v16.61m66.44,0h16.61V99.66H249.15v16.61m16.61,0h16.61V99.66H265.76v16.61m16.61,0H299V99.66H282.37v16.61m33.22,0H332.2V99.66H315.59v16.61m99.66,0h16.61V99.66H415.26v16.61M16.61,99.66H33.22V83.05H16.61V99.66m33.22,0H66.44V83.05H49.83V99.66m16.61,0H83.05V83.05H66.44V99.66m16.61,0H99.66V83.05H83.05V99.66m33.22,0h16.61V83.05H116.27V99.66m66.44,0h16.61V83.05H182.71V99.66m33.22,0h16.61V83.05H215.93V99.66m16.61,0h16.61V83.05H232.54V99.66m33.22,0h16.61V83.05H265.76V99.66m16.61,0H299V83.05H282.37V99.66m33.22,0H332.2V83.05H315.59V99.66m33.22,0h16.61V83.05H348.82V99.66m16.61,0H382V83.05H365.43V99.66m16.61,0h16.61V83.05H382V99.66m33.22,0h16.61V83.05H415.26V99.66M16.61,83.05H33.22V66.44H16.61V83.05m33.22,0H66.44V66.44H49.83V83.05m16.61,0H83.05V66.44H66.44V83.05m16.61,0H99.66V66.44H83.05V83.05m33.22,0h16.61V66.44H116.27V83.05m33.22,0H166.1V66.44H149.49V83.05m16.61,0h16.61V66.44H166.1V83.05m33.22,0h16.61V66.44H199.32V83.05m33.22,0h16.61V66.44H232.54V83.05m16.61,0h16.61V66.44H249.15V83.05m16.61,0h16.61V66.44H265.76V83.05m49.83,0H332.2V66.44H315.59V83.05m33.22,0h16.61V66.44H348.82V83.05m16.61,0H382V66.44H365.43V83.05m16.61,0h16.61V66.44H382V83.05m33.22,0h16.61V66.44H415.26V83.05M16.61,66.44H33.22V49.83H16.61V66.44m33.22,0H66.44V49.83H49.83V66.44m16.61,0H83.05V49.83H66.44V66.44m16.61,0H99.66V49.83H83.05V66.44m33.22,0h16.61V49.83H116.27V66.44m49.83,0h16.61V49.83H166.1V66.44m16.61,0h16.61V49.83H182.71V66.44m16.61,0h16.61V49.83H199.32V66.44m49.83,0h16.61V49.83H249.15V66.44m16.61,0h16.61V49.83H265.76V66.44m49.83,0H332.2V49.83H315.59V66.44m33.22,0h16.61V49.83H348.82V66.44m16.61,0H382V49.83H365.43V66.44m16.61,0h16.61V49.83H382V66.44m33.22,0h16.61V49.83H415.26V66.44M16.61,49.83H33.22V33.22H16.61V49.83m99.66,0h16.61V33.22H116.27V49.83m33.22,0H166.1V33.22H149.49V49.83m16.61,0h16.61V33.22H166.1V49.83m33.22,0h16.61V33.22H199.32V49.83m16.61,0h16.61V33.22H215.93V49.83m16.61,0h16.61V33.22H232.54V49.83m16.61,0h16.61V33.22H249.15V49.83m16.61,0h16.61V33.22H265.76V49.83m49.83,0H332.2V33.22H315.59V49.83m99.66,0h16.61V33.22H415.26V49.83M16.61,33.22H33.22V16.61H16.61V33.22m16.61,0H49.83V16.61H33.22V33.22m16.61,0H66.44V16.61H49.83V33.22m16.61,0H83.05V16.61H66.44V33.22m16.61,0H99.66V16.61H83.05V33.22m16.61,0h16.61V16.61H99.66V33.22m16.61,0h16.61V16.61H116.27V33.22m49.83,0h16.61V16.61H166.1V33.22m116.27,0H299V16.61H282.37V33.22m33.22,0H332.2V16.61H315.59V33.22m16.61,0h16.61V16.61H332.2V33.22m16.61,0h16.61V16.61H348.82V33.22m16.61,0H382V16.61H365.43V33.22m16.61,0h16.61V16.61H382V33.22m16.61,0h16.61V16.61H398.65V33.22m16.61,0h16.61V16.61H415.26V33.22Z"/></svg>