<svg xmlns="http://www.w3.org/2000/svg" width="109.867" height="83.229" viewBox="0 0 109.867 83.229">
  <g id="Group_1" data-name="Group 1" transform="translate(-396.713 -484.638)">
    <path id="path16" d="M390.4-725.745l.048-.03-.052.028a5.019,5.019,0,0,0-.685.429l.689-.424v0" transform="translate(17.377 1254.792)" fill="#82bfab"/>
    <path id="path18" d="M546.057-649.543a31.278,31.278,0,0,1-3.791-3.656l-13.736,8.505,4.849,3,1.329-.822a4.45,4.45,0,0,1,.969-.6l10.38-6.428" transform="translate(-104.177 1191.24)" fill="#6edfd2"/>
    <path id="path20" d="M450.149-750.3a31.359,31.359,0,0,1-1.764-4.913L429.77-743.691l-.562.345-.157.1.167-.091a25.813,25.813,0,0,0,3.629,3.744l.737-.457,1.357-.838,15.209-9.415" transform="translate(-17.069 1280.572)" fill="#6edfd2"/>
    <path id="path22" d="M339.9-1052.2l14.458-8.95.006.012,6.228-3.852.232-.146.374-.393a2.035,2.035,0,0,1-.466-1.609l.022-.094a2.138,2.138,0,0,1,.255-.674l.189-.2a2.05,2.05,0,0,1,2.633-.487l.064.04,17.788,11.109,3.571,2.231a4.478,4.478,0,0,0,3.585.7,4.505,4.505,0,0,0,3.374-5.4,4.477,4.477,0,0,0-2.068-2.836l-.127-.078-22.285-13.918-.012.012-.054-.037a31.349,31.349,0,0,0-6.471-3.023,31.379,31.379,0,0,0-16.722-.98,30.88,30.88,0,0,0-3.775,1.055,31.6,31.6,0,0,0-3.259,1.352,9.232,9.232,0,0,1-6.72-1.192l-4.969-3.078-19.488,31.48,4.515,2.793,2.809,1.739a9.238,9.238,0,0,1,2.828,4.832l.081.432c.123.661.293,1.312.471,1.962.108.393.235.78.359,1.167l.052-.027L339.9-1052.2" transform="translate(90.445 1567.27)" fill="#6edfd2"/>
    <path id="path24" d="M456.665-1082.632l-4.97,3.078a9.233,9.233,0,0,1-6.719,1.192,31.23,31.23,0,0,0-3.259-1.352,31.122,31.122,0,0,0-3.771-1.055,31.392,31.392,0,0,0-16.726.98,31.355,31.355,0,0,1,6.471,3.023l.054.037.012-.012,22.285,13.918.127.078a4.477,4.477,0,0,1,2.068,2.836,4.505,4.505,0,0,1-3.374,5.4,4.478,4.478,0,0,1-3.586-.7l-3.571-2.231-17.788-11.109-.064-.04a2.05,2.05,0,0,0-2.633.487l.19.2a2.036,2.036,0,0,1-.19,2.376l-.374.393-.232.145-6.228,3.852-.006-.012-14.458,8.95L377.4-1038.254l-.048.033-.689.424a4.64,4.64,0,0,0-1.853,3.7,4.66,4.66,0,0,0,4.662,4.662,4.642,4.642,0,0,0,2.083-.511l.157-.1.562-.345,18.615-11.526a31.36,31.36,0,0,0,1.764,4.913l-15.209,9.415-1.357.838a4.637,4.637,0,0,0-1.6,3.489,4.664,4.664,0,0,0,4.665,4.662,4.625,4.625,0,0,0,3.172-1.264l.066.091,1.537-.953,13.736-8.505a31.3,31.3,0,0,0,3.791,3.656l-10.38,6.428a4.454,4.454,0,0,0-.969.6,4.586,4.586,0,0,0-1.78,3.616,4.627,4.627,0,0,0,4.633,4.626,4.6,4.6,0,0,0,3.387-1.491l.14.179,1.1-.683,8.787-5.442,2.637-1.633v-2.346l-.022-.445.022-.444a4.643,4.643,0,0,1,4.62-4.194,4.64,4.64,0,0,1,4.632,4.593v.093l0,5.734,0,8.167,5.1-3.16v-.617l-.006-.046.006-.045v-4.938l.006-7.082v-3.646l0-1.24-.014-.221.014-.224a4.584,4.584,0,0,1,1.271-2.966,4.619,4.619,0,0,1,3.344-1.436,4.617,4.617,0,0,1,3.343,1.436,4.606,4.606,0,0,1,1.281,3.193l-.009.224.021,0v4.608l0,7.305,5.1-3.16v-5.288l0-6.573v-.015l-.006-.167.03-.432v-.568h.09a4.637,4.637,0,0,1,2.543-3.175,4.583,4.583,0,0,1,1.969-.457,4.626,4.626,0,0,1,4.514,3.631h.088v.72l.02.187.012.1-.012.212v5.866a26.173,26.173,0,0,0,7.621-10.565,26.526,26.526,0,0,0,1.334-4.6l.077-.432a9.25,9.25,0,0,1,2.831-4.832l2.807-1.739,4.513-2.793-19.486-31.48" transform="translate(30.428 1567.27)" fill="#616e7d"/>
    <path id="path26" d="M854.842-685.38l-.021,0,.009-.224a4.606,4.606,0,0,0-1.281-3.193,4.617,4.617,0,0,0-3.343-1.436,4.619,4.619,0,0,0-3.344,1.436,4.584,4.584,0,0,0-1.271,2.966l-.014.224.014.221,0,1.24v3.646l-.006,7.082v4.938l-.006.045.006.046v.617l.056-.037a4.609,4.609,0,0,0,4.56,4,4.607,4.607,0,0,0,4.563-4.046h.039v-.375l.021-.2-.021-.2v-4.811l.038-.021,0-7.305v-4.608" transform="translate(-381.797 1223.667)" fill="#6edfd2"/>
    <path id="path28" d="M659.047-628.988v-.093a4.64,4.64,0,0,0-4.632-4.593,4.643,4.643,0,0,0-4.62,4.194l-.022.444.022.445v5.612l-2.637-1.633-8.787,5.442,4.847,3,1.328-.822.1-.061,5.145-3.187v5.43l0,5.44v.012l.241-.149a4.6,4.6,0,0,0,4.385,3.23,4.608,4.608,0,0,0,4.563-4.043h.039v-.375l.021-.2-.021-.2v-3.97l.024-.018,0-8.167,0-5.734" transform="translate(-200.358 1174.144)" fill="#6edfd2"/>
    <path id="path30" d="M970.333-710.292l-.012-.1-.02-.187v-.72h-.088a4.626,4.626,0,0,0-4.514-3.631,4.581,4.581,0,0,0-1.969.457,4.637,4.637,0,0,0-2.543,3.175h-.09v.568l-.03.432.006.167v.015l0,6.573v5.288l.028-.018v.747l-.02.194.02.2v.381h.041a4.605,4.605,0,0,0,4.562,4.046,4.6,4.6,0,0,0,4.562-4.046h.04v-.375l.02-.2-.02-.2V-704.2l.02-.015v-5.866l.012-.212" transform="translate(-482.924 1245.295)" fill="#6edfd2"/>
    <path id="path32" d="M679.086-522.387v-3.259l-5.145,3.187-.1.061a4.616,4.616,0,0,0-2.014,3.813,4.627,4.627,0,0,0,4.628,4.629,4.632,4.632,0,0,0,2.629-.819l0-5.44v-2.171" transform="translate(-229.653 1079.551)" fill="#616e7d"/>
  </g>
</svg>
